<svg width="13" height="6" viewBox="0 0 13 6" fill="none" xmlns="http://www.w3.org/2000/svg">
          <path
            d="M1 2.65C0.8067 2.65 0.65 2.8067 0.65 3C0.65 3.1933 0.8067 3.35 1 3.35V2.65ZM12.2475 3.24749C12.3842 3.1108 12.3842 2.8892 12.2475 2.75251L10.0201 0.525126C9.88342 0.388443 9.66181 0.388443 9.52513 0.525126C9.38844 0.66181 9.38844 0.883418 9.52513 1.0201L11.505 3L9.52513 4.9799C9.38844 5.11658 9.38844 5.33819 9.52513 5.47487C9.66181 5.61156 9.88342 5.61156 10.0201 5.47487L12.2475 3.24749ZM1 3V3.35H12V3V2.65H1V3Z"
            fill="#CBCBCB"
          />
</svg>