<svg width="141" height="48" viewBox="0 0 141 48" fill="none" xmlns="http://www.w3.org/2000/svg">
<path d="M112.724 0.103961C113.423 -0.22998 114.232 0.28133 114.232 1.05663V2.31121C114.231 13.6639 114.231 23.7245 114.26 35.2262C114.262 35.8096 113.791 36.2839 113.207 36.2839H108.249C107.667 36.2839 107.196 35.8119 107.196 35.2296C107.196 24.789 107.195 14.5295 107.168 4.09204C107.166 3.27728 107.634 2.534 108.369 2.18307L112.724 0.103961Z" fill="#EA3863"/>
<path fill-rule="evenodd" clip-rule="evenodd" d="M65.695 12.0416C72.2581 11.8261 77.8529 17.3158 77.8576 24.0421C77.8693 27.277 76.6036 30.3841 74.3388 32.6799C72.074 34.9756 68.9958 36.272 65.7811 36.2838C62.5665 36.2956 59.4789 35.0219 57.1976 32.7428C54.9162 30.4637 53.628 27.366 53.6162 24.1311C53.5976 17.3299 59.1692 11.8683 65.695 12.0416ZM70.8456 24.1597C70.8456 26.9876 68.5538 29.2801 65.7267 29.2801C62.8997 29.2801 60.6078 26.9876 60.6078 24.1597C60.6078 21.3318 62.8997 19.0394 65.7267 19.0394C68.5538 19.0394 70.8456 21.3318 70.8456 24.1597Z" fill="#EA3863"/>
<path fill-rule="evenodd" clip-rule="evenodd" d="M49.9982 27.0863C50.5321 27.0863 50.9847 26.6872 51.0257 26.1548C51.2336 23.4562 50.9335 20.682 49.6318 18.272C48.2707 15.7522 46.0021 13.8476 42.9128 12.7319C37.1915 10.6452 30.7918 13.4076 28.0991 18.8764C25.4803 24.1973 27.1995 30.8829 32.0546 34.1225C36.2604 36.9276 41.8065 36.991 45.7256 34.3784C46.2653 33.9998 46.785 33.5965 47.2769 33.161C47.8073 32.6913 47.6495 31.855 47.0108 31.5483L41.6536 28.9752C41.3645 28.8363 41.0301 28.843 40.7289 28.9529C40.1839 29.1517 39.5956 29.2601 38.9819 29.2601C37.2545 29.2601 35.7277 28.4009 34.8054 27.0863L49.9982 27.0863ZM34.4514 21.817C35.2997 20.1787 37.0101 19.0591 38.9819 19.0591C40.9538 19.0591 42.6642 20.1787 43.5125 21.817H34.4514Z" fill="#EA3863"/>
<path fill-rule="evenodd" clip-rule="evenodd" d="M140.94 26.1548C140.899 26.6872 140.446 27.0863 139.912 27.0863L124.72 27.0863C125.642 28.4009 127.169 29.2601 128.896 29.2601C129.51 29.2601 130.098 29.1517 130.643 28.9529C130.944 28.843 131.279 28.8363 131.568 28.9752L136.925 31.5483C137.564 31.855 137.722 32.6913 137.191 33.161C136.699 33.5965 136.179 33.9998 135.64 34.3784C131.721 36.991 126.175 36.9276 121.969 34.1225C117.114 30.8829 115.394 24.1973 118.013 18.8764C120.706 13.4076 127.106 10.6452 132.827 12.7319C135.916 13.8476 138.185 15.7522 139.546 18.272C140.848 20.682 141.148 23.4562 140.94 26.1548ZM128.896 19.0591C126.924 19.0591 125.214 20.1787 124.366 21.817H133.427C132.578 20.1787 130.868 19.0591 128.896 19.0591Z" fill="#EA3863"/>
<path d="M0 13.0897C0 12.5074 0.471884 12.0354 1.05398 12.0354H5.44198C6.18021 12.0354 6.82979 12.415 7.20633 12.9897C8.72344 12.3716 10.4049 12.0354 12.1746 12.0354C18.8975 12.0354 24.3479 16.8902 24.3492 23.6152C24.3496 25.8507 24.3488 28.2702 24.3481 30.6692V30.7904C24.3476 32.2965 24.3471 33.7932 24.347 35.2298C24.3469 35.8121 23.875 36.2838 23.2929 36.2838L17.8761 36.2839C17.2942 36.2839 16.8224 35.8121 16.8221 35.23L16.8174 23.6152C16.8174 21.0628 14.7489 18.9937 12.1972 18.9937C9.6456 18.9937 7.57709 21.0628 7.57709 23.6152L7.57696 35.2296C7.57695 35.8119 7.10507 36.2839 6.52298 36.2839H1.05399C0.471884 36.2839 0 35.8155 1.28659e-05 35.2332L0 13.0897Z" fill="#EA3863"/>
<path fill-rule="evenodd" clip-rule="evenodd" d="M92.4653 11.7298C99.0283 11.5144 104.623 17.0041 104.628 23.7303C104.64 26.9652 103.374 30.0723 101.109 32.3681C98.8442 34.6639 95.766 35.9603 92.5513 35.9721C90.7458 35.9787 88.9804 35.5798 87.3753 34.825C87.3751 39.5165 87.3744 44.4503 87.374 46.9536C87.3739 47.7311 86.5613 48.2307 85.8615 47.8924L81.5856 45.8254C80.8575 45.4734 80.3949 44.7358 80.3949 43.9269C80.3949 42.0186 80.3962 40.1101 80.3974 38.2017C80.4006 33.4075 80.4038 28.6132 80.3864 23.8193C80.3678 17.0181 85.9394 11.5565 92.4653 11.7298ZM87.3943 23.8421C87.3943 26.67 89.6861 28.9625 92.5132 28.9625C95.3403 28.9625 97.6321 26.67 97.6321 23.8421C97.6321 21.0142 95.3403 18.7217 92.5132 18.7217C89.6861 18.7217 87.3943 21.0142 87.3943 23.8421Z" fill="#EA3863"/>
</svg>
